<mxfile host="app.diagrams.net" modified="2023-10-22T10:47:23.199Z" agent="Mozilla/5.0 (Windows NT 10.0; Win64; x64) AppleWebKit/537.36 (KHTML, like Gecko) Chrome/118.0.0.0 Safari/537.36" version="22.0.6" etag="Yw7tFQS4K62FGNqLSjPk" type="github">
  <diagram name="Страница — 1" id="RZTZC34D9E1PMYEl7kcc">
    <mxGraphModel>
      <root>
        <mxCell id="0" />
        <mxCell id="1" parent="0" />
      </root>
    </mxGraphModel>
  </diagram>
</mxfile>
